# xmcd
#
# Track frame offsets:
# 150
# 44245
# 77090
# 109825
# 143782
# 189790
#
# Disc length: 2952 seconds
#
#
# Revision: 0
# Processed by: cddbd v1.5.1PL0 Copyright (c) Steve Scherf et al.
# Submitted via: FreeRIP 2.92 
#
DISCID=4d0b8606
DTITLE=Roy Elridge - Jazz and Blues
DYEAR=1900
DGENRE=
TTITLE0=Blue Lou
TTITLE1=Basin Street Blues
TTITLE2=Just You, Just Me
TTITLE3=Riftide
TTITLE4=I Can´t Get Started - These Foolish Things
TTITLE5=Undecided
EXTD=
EXTT0=
EXTT1=
EXTT2=
EXTT3=
EXTT4=
EXTT5=
PLAYORDER=
